<svg width="48" height="48" viewBox="0 0 48 48" fill="none" xmlns="http://www.w3.org/2000/svg">
<path d="M24 25.0565V10H45V38H3V25.0565H24Z" fill="#F87171"/>
<path fill-rule="evenodd" clip-rule="evenodd" d="M24.5 10.5402H44.5V37.4598H3.5V24.0028H3V38H45V10H24V10.5402H24.5Z" fill="#DC2626"/>
<path d="M3 10H24V24H3V10Z" fill="#82BBF1"/>
<path fill-rule="evenodd" clip-rule="evenodd" d="M23.5 10.5H3.5V23.5H23.5V10.5ZM3 10V24H24V10H3Z" fill="#2A7FD0"/>
<path d="M6.50001 11L7.14658 12.1101L8.40213 12.382L7.54618 13.3399L7.67558 14.618L6.50001 14.1L5.32444 14.618L5.45385 13.3399L4.5979 12.382L5.85345 12.1101L6.50001 11Z" fill="#EAF4FD"/>
<path d="M12.5 11L13.1466 12.1101L14.4021 12.382L13.5462 13.3399L13.6756 14.618L12.5 14.1L11.3244 14.618L11.4539 13.3399L10.5979 12.382L11.8534 12.1101L12.5 11Z" fill="#EAF4FD"/>
<path d="M18.5 11L19.1466 12.1101L20.4021 12.382L19.5462 13.3399L19.6756 14.618L18.5 14.1L17.3244 14.618L17.4539 13.3399L16.5979 12.382L17.8534 12.1101L18.5 11Z" fill="#EAF4FD"/>
<path d="M8.50001 15L9.14658 16.1101L10.4021 16.382L9.54618 17.3399L9.67558 18.618L8.50001 18.1L7.32444 18.618L7.45385 17.3399L6.5979 16.382L7.85345 16.1101L8.50001 15Z" fill="#EAF4FD"/>
<path d="M14.5 15L15.1466 16.1101L16.4021 16.382L15.5462 17.3399L15.6756 18.618L14.5 18.1L13.3244 18.618L13.4539 17.3399L12.5979 16.382L13.8534 16.1101L14.5 15Z" fill="#EAF4FD"/>
<path d="M20.5 15L21.1466 16.1101L22.4021 16.382L21.5462 17.3399L21.6756 18.618L20.5 18.1L19.3244 18.618L19.4539 17.3399L18.5979 16.382L19.8534 16.1101L20.5 15Z" fill="#EAF4FD"/>
<path d="M6.50001 19L7.14658 20.1101L8.40213 20.382L7.54618 21.3399L7.67558 22.618L6.50001 22.1L5.32444 22.618L5.45385 21.3399L4.5979 20.382L5.85345 20.1101L6.50001 19Z" fill="#EAF4FD"/>
<path d="M12.75 19L13.3966 20.1101L14.6521 20.382L13.7962 21.3399L13.9256 22.618L12.75 22.1L11.5744 22.618L11.7039 21.3399L10.8479 20.382L12.1034 20.1101L12.75 19Z" fill="#EAF4FD"/>
<path d="M19 19L19.6466 20.1101L20.9021 20.382L20.0462 21.3399L20.1756 22.618L19 22.1L17.8244 22.618L17.9539 21.3399L17.0979 20.382L18.3534 20.1101L19 19Z" fill="#EAF4FD"/>
<rect x="24" y="13" width="20.5" height="3" fill="#F4F4F5"/>
<rect x="24" y="18" width="20.5" height="3" fill="#F4F4F5"/>
<rect x="3.5" y="24" width="41" height="3" fill="#F4F4F5"/>
<rect x="3.5" y="29.4" width="41" height="3" fill="#F4F4F5"/>
<rect x="3.5" y="35" width="41" height="2.5" fill="#F4F4F5"/>
</svg>
